# xmcd CD database file
#
# Track frame offsets:
#	150
#	12960
#	23703
#	37238
#	52060
#	65274
#	79165
#	94370
#	98947
#	113702
#	124804
#	133303
#	144473
#	158749
#	169934
#	183535
#	194230
#	207684
#	221839
#	233563
#
# Disc length: 3288 seconds
#
# Revision: 0
# Processed by: cddbd v1.5.1PL2 Copyright (c) Steve Scherf et al.
# Submitted via: CDex 1.51
#
DISCID=350cd614
DTITLE=Doris Day - My Blue Heaven
DYEAR=1900
DGENRE=Jazz
TTITLE0=Stardust
TTITLE1=S'posin'
TTITLE2=I'm Still Sitting Under The Apple Tree
TTITLE3=It's The Sentimental Thing To Do
TTITLE4=My Young And Foolish Heart
TTITLE5=Put 'em In A Box, Tie 'em With A Ribbon
TTITLE6=I've Only Myself To Blame
TTITLE7=It's A Great Feeling
TTITLE8=Just An Old Love Of Mine
TTITLE9=On Moonlight Bay
TTITLE10=My Blue Heaven
TTITLE11=My Dream Is Yours
TTITLE12=No Moon At All
TTITLE13=Papa, Won't You Dance With Me ?
TTITLE14=Pretty Baby
TTITLE15=Someone Like You
TTITLE16=That's The Way He Does It
TTITLE17=Thoughtless
TTITLE18=Till We Meet Again
TTITLE19=Why Should We Both Be Lonely ?
EXTD=
EXTT0=
EXTT1=
EXTT2=
EXTT3=
EXTT4=
EXTT5=
EXTT6=
EXTT7=
EXTT8=
EXTT9=
EXTT10=
EXTT11=
EXTT12=
EXTT13=
EXTT14=
EXTT15=
EXTT16=
EXTT17=
EXTT18=
EXTT19=
PLAYORDER=
